<svg xmlns="http://www.w3.org/2000/svg" viewBox="0 0 360 395.57"><defs><style>.cls-1{fill:#231f20;stroke:#878787;stroke-width:10px;}.cls-1,.cls-2{stroke-miterlimit:10;}.cls-2{fill:none;stroke:#000;}</style></defs><g id="Layer_2" data-name="Layer 2"><g id="Layer_1-2" data-name="Layer 1"><path class="cls-1" d="M355,264.16V131.41a60,60,0,0,0-30-52L210,13a60.06,60.06,0,0,0-60,0L35,79.42a60,60,0,0,0-30,52V264.16a60,60,0,0,0,30,52l115,66.38a60.06,60.06,0,0,0,60,0l115-66.38A60,60,0,0,0,355,264.16Z"/><path class="cls-2" d="M355,264.16V131.41a60,60,0,0,0-30-52L210,13a60.06,60.06,0,0,0-60,0L35,79.42a60,60,0,0,0-30,52V264.16a60,60,0,0,0,30,52l115,66.38a60.06,60.06,0,0,0,60,0l115-66.38A60,60,0,0,0,355,264.16Z"/></g></g></svg>