<?xml version="1.0" encoding="utf-8"?>
<!-- Generator: Adobe Illustrator 24.3.0, SVG Export Plug-In . SVG Version: 6.00 Build 0)  -->
<svg version="1.1" id="Layer_1" xmlns="http://www.w3.org/2000/svg" xmlns:xlink="http://www.w3.org/1999/xlink" x="0px" y="0px"
	 viewBox="0 0 360 395.6" style="enable-background:new 0 0 360 395.6;" xml:space="preserve">
<style type="text/css">
	.st0{fill:#383838;stroke:#999999;stroke-width:10;stroke-miterlimit:10;}
	.st1{fill:none;stroke:#595959;stroke-miterlimit:10;}
</style>
<g id="Layer_2_1_">
	<g id="Layer_1-2">
		<path class="st0" d="M355,264.2V131.4c0-21.4-11.4-41.3-30-52L210,13c-18.6-10.7-41.4-10.7-60,0L35,79.4C16.4,90.1,5,110,5,131.4
			v132.7c0,21.4,11.4,41.3,30,52l115,66.4c18.6,10.7,41.4,10.7,60,0l115-66.4C343.6,305.4,355,285.6,355,264.2z"/>
		<path class="st1" d="M355,264.2V131.4c0-21.4-11.4-41.3-30-52L210,13c-18.6-10.7-41.4-10.7-60,0L35,79.4C16.4,90.1,5,110,5,131.4
			v132.7c0,21.4,11.4,41.3,30,52l115,66.4c18.6,10.7,41.4,10.7,60,0l115-66.4C343.6,305.4,355,285.6,355,264.2z"/>
	</g>
</g>
</svg>
