<?xml version="1.0" encoding="utf-8"?>
<!-- Generator: Adobe Illustrator 24.1.3, SVG Export Plug-In . SVG Version: 6.00 Build 0)  -->
<svg version="1.1" id="Layer_1" xmlns="http://www.w3.org/2000/svg" xmlns:xlink="http://www.w3.org/1999/xlink" x="0px" y="0px"
	 viewBox="0 0 410.1 341.2" style="enable-background:new 0 0 410.1 341.2;" xml:space="preserve">
<style type="text/css">
	.st0{fill:#B2B2B2;}
</style>
<g>
	<g>
		<path class="st0" d="M403.6,39.7c-9.1,4-18.6,7.2-28.3,9.5c10.8-10.2,18.8-23,23.3-37.1l0,0c0.8-2.4-0.6-5-3-5.8
			c-1.3-0.4-2.6-0.2-3.8,0.4l0,0c-13.5,8-28,14-43.2,17.9c-0.9,0.2-1.8,0.3-2.7,0.3c-2.8,0-5.5-1-7.6-2.9C322.2,7.8,301.4,0,279.9,0
			c-9.5,0-18.9,1.5-28,4.3c-28.8,9-50.7,32.4-57.8,61.7c-2.6,10.6-3.3,21.7-2.1,32.6c0.1,0.9-0.2,1.8-0.8,2.5
			c-0.6,0.7-1.5,1.1-2.4,1.1h-0.3C125.7,96.3,69.1,66.1,29.1,17l0,0c-1.6-2-4.5-2.3-6.5-0.7c-0.4,0.3-0.8,0.8-1.1,1.2l0,0
			C1.2,52.5,7.1,96.8,35.9,125.1c-7-1.7-13.8-4.3-20.2-7.8l0,0c-2.2-1.2-5.1-0.4-6.3,1.8c-0.4,0.7-0.6,1.4-0.6,2.2l0,0
			c-0.4,35,19.8,67,51.7,81.6h-1.9c-5,0-10-0.5-14.9-1.4l0,0c-2.5-0.5-4.9,1.2-5.4,3.7c-0.1,0.8-0.1,1.5,0.1,2.3l0,0
			c10.2,31.6,37.2,54.9,70,60.3c-27,18.2-58.8,27.8-91.4,27.8H6.8c-3.1,0-5.8,2.1-6.6,5.1c-0.7,3,0.6,6.2,3.4,7.7
			c37.1,21.5,79.1,32.9,122,32.9c37.5,0,72.5-7.4,104.2-22.1c29.1-13.5,55.1-33,76.2-57.1c20.2-23,36-49.5,46.7-78.2
			c10.3-27.4,15.7-56.3,15.9-85.6v-1.3c0-4.6,2.1-8.9,5.6-11.7c13.6-11,25.4-24,35.2-38.6l0,0c1.4-2.1,0.9-5-1.3-6.4
			C406.8,39.2,405.1,39,403.6,39.7z"/>
	</g>
</g>
</svg>
