<?xml version="1.0" encoding="utf-8"?>
<!-- Generator: Adobe Illustrator 24.2.1, SVG Export Plug-In . SVG Version: 6.00 Build 0)  -->
<svg version="1.1" id="Layer_1" xmlns="http://www.w3.org/2000/svg" xmlns:xlink="http://www.w3.org/1999/xlink" x="0px" y="0px"
	 viewBox="0 0 461 326.2" style="enable-background:new 0 0 461 326.2;" xml:space="preserve">
<style type="text/css">
	.st0{fill:#B2B2B2;}
</style>
<g>
	<g>
		<path class="st0" d="M365.3,0H95.7C42.9,0,0,42.9,0,95.7v134.7c0,52.9,42.9,95.7,95.7,95.8h269.5c52.9,0,95.7-42.9,95.7-95.7
			c0,0,0,0,0,0V95.7C461,42.9,418.1,0,365.3,0z M300.5,169.7l-126.1,60.1c-2.5,1.2-5.5,0.1-6.7-2.4c-0.3-0.7-0.5-1.4-0.5-2.2v-124
			c0-2.8,2.3-5.1,5.1-5.1c0.8,0,1.6,0.2,2.3,0.5l126.1,63.9c2.5,1.3,3.5,4.3,2.2,6.8C302.3,168.4,301.5,169.2,300.5,169.7z"/>
	</g>
</g>
</svg>
